<?xml version="1.0" encoding="UTF-8" standalone="no"?>
<!DOCTYPE svg PUBLIC "-//W3C//DTD SVG 20010904//EN"
"http://www.w3.org/TR/2001/REC-SVG-20010904/DTD/svg10.dtd">
<!-- Created with Inkscape (http://www.inkscape.org/) -->
<svg
   width="210mm"
   height="297mm"
   id="svg2171"
   sodipodi:version="0.32"
   inkscape:version="0.40"
   sodipodi:docbase="/home/cheng/Pictures/concepts/auckLUG"
   sodipodi:docname="final-concept.svg"
   xmlns="http://www.w3.org/2000/svg"
   xmlns:cc="http://web.resource.org/cc/"
   xmlns:inkscape="http://www.inkscape.org/namespaces/inkscape"
   xmlns:sodipodi="http://sodipodi.sourceforge.net/DTD/sodipodi-0.dtd"
   xmlns:rdf="http://www.w3.org/1999/02/22-rdf-syntax-ns#"
   xmlns:dc="http://purl.org/dc/elements/1.1/"
   xmlns:xlink="http://www.w3.org/1999/xlink">
  <defs
     id="defs3" />
  <sodipodi:namedview
     id="base"
     pagecolor="#ffffff"
     bordercolor="#666666"
     borderopacity="1.0"
     inkscape:pageopacity="0.0"
     inkscape:pageshadow="2"
     inkscape:zoom="1.0000000"
     inkscape:cx="294.30981"
     inkscape:cy="474.48004"
     inkscape:current-layer="layer1"
     inkscape:window-width="1600"
     inkscape:window-height="1113"
     inkscape:window-x="0"
     inkscape:window-y="27" />
  <metadata
     id="metadata4">
    <rdf:RDF
       id="RDF5">
      <cc:Work
         rdf:about=""
         id="Work6">
        <dc:format
           id="format7">image/svg+xml</dc:format>
        <dc:type
           id="type9"
           rdf:resource="http://purl.org/dc/dcmitype/StillImage" />
      </cc:Work>
    </rdf:RDF>
  </metadata>
  <g
     inkscape:label="Layer 1"
     inkscape:groupmode="layer"
     id="layer1">
    <g
       id="g6185"
       inkscape:export-filename="/home/cheng/aucklug-logo-concept1.3.5.png"
       inkscape:export-xdpi="72.000000"
       inkscape:export-ydpi="72.000000">
      <path
         style="fill:#818181;fill-opacity:1.0000000;stroke:#818181;stroke-width:0.66661686;stroke-linecap:round;stroke-linejoin:round;stroke-miterlimit:4.0000000;stroke-dashoffset:0.0000000;stroke-opacity:1.0000000;opacity:1.0000000;"
         d="M 396.96976,340.04720 C 396.96976,352.77874 396.96976,365.51028 396.96976,378.24181 C 393.17880,382.65566 398.04960,389.81490 396.07274,395.56823 C 396.07274,404.47555 396.07274,413.38287 396.07274,422.29018 C 387.31715,423.42822 401.70736,434.32323 391.42801,434.86174 C 383.28478,439.33227 395.65386,448.01725 391.45166,454.63915 C 393.67305,464.92850 376.81941,465.63693 379.50278,474.63933 C 382.89171,480.63134 387.59228,486.15761 389.98728,492.32510 C 394.67754,488.59382 403.36353,485.76275 408.16116,492.05693 C 410.25673,496.54791 410.58056,485.45957 413.23871,483.65383 C 417.69285,478.26756 424.44714,469.71096 414.28973,465.78073 C 405.96431,462.33015 406.32545,451.67647 407.97734,444.26159 C 412.98108,437.64506 406.82805,434.34932 402.04501,431.20980 C 406.16497,427.22070 404.24036,422.85924 401.62271,418.37780 C 402.26342,412.18463 402.09543,405.68484 402.09243,399.31030 C 402.41275,392.79580 401.37306,385.87741 402.76462,379.67979 C 398.54997,373.60171 401.91163,366.03072 400.88391,358.97996 C 400.87901,352.66904 400.87411,346.35812 400.86921,340.04720 C 399.56940,340.04720 398.26958,340.04720 396.96976,340.04720 z "
         id="path2659"
         transform="matrix(2.548871,0.000000,0.000000,2.548871,-872.5127,-769.3387)" />
      <path
         style="fill:#818181;fill-opacity:1.0000000;fill-rule:evenodd;stroke:#818181;stroke-width:0.66661686;stroke-linecap:butt;stroke-linejoin:miter;stroke-miterlimit:4.0000000;stroke-opacity:1.0000000;opacity:1.0000000;"
         d="M 406.48511,597.24150 C 406.73294,571.15844 404.94800,544.96775 407.99704,518.98274 C 407.51784,511.49700 413.12081,499.68172 403.17566,496.26249 C 394.74040,493.09228 386.85386,503.34142 390.52938,511.02781 C 392.35993,531.80475 393.73894,552.65381 392.97117,573.51983 C 392.91189,581.41322 392.83894,589.30651 392.78753,597.19996 C 397.35342,597.20196 401.91921,597.24057 406.48511,597.24150 z "
         id="path2660"
         transform="matrix(2.548871,0.000000,0.000000,2.548871,-872.5127,-769.3387)" />
    </g>
    <path
       style="font-size:48.000000;font-style:normal;font-variant:normal;font-weight:normal;font-stretch:normal;fill:#000000;fill-opacity:1.0000000;stroke:none;stroke-width:1.0000000pt;stroke-linecap:butt;stroke-linejoin:miter;stroke-opacity:1.0000000;font-family:Venus Rising;text-anchor:start;writing-mode:lr"
       d="M 156.12676,939.12839 L 144.61640,939.12839 L 144.61640,920.79119 L 95.320317,920.79119 L 95.320317,939.12839 L 83.809959,939.12839 L 83.809959,899.04059 C 83.809943,892.74300 87.011675,887.87427 93.415154,884.43434 C 98.283887,881.78833 103.73475,880.46530 109.76780,880.46525 L 129.45448,880.46525 C 135.75204,880.46530 141.54691,881.97356 146.83909,884.99001 C 153.03079,888.53578 156.12667,893.21929 156.12676,899.04059 L 156.12676,939.12839 M 144.61640,901.50142 C 144.61633,898.90832 143.10808,896.68563 140.09164,894.83335 C 137.07506,892.92822 133.52935,891.97564 129.45448,891.97561 L 109.76780,891.97561 C 106.53957,891.97564 103.31138,893.00761 100.08322,895.07150 C 96.907936,897.13546 95.320300,899.27877 95.320317,901.50142 L 95.320317,909.28084 L 144.61640,909.28084 L 144.61640,901.50142 M 238.53372,926.10977 C 238.53364,934.78885 229.93396,939.12839 212.73465,939.12839 L 192.09538,939.12839 C 186.53863,939.12839 181.29943,938.25519 176.37779,936.50879 C 169.60386,934.07441 166.21691,930.60807 166.21693,926.10977 L 166.21693,880.46525 L 177.72728,880.46525 L 177.72728,923.01388 C 177.72727,926.08331 182.51662,927.61803 192.09538,927.61803 L 212.73465,927.61803 C 222.26039,927.61803 227.02330,926.08331 227.02337,923.01388 L 227.02337,880.46525 L 238.53372,880.46525 L 238.53372,926.10977 M 321.60179,939.12839 L 275.16345,939.12839 C 269.02456,939.12839 263.75890,938.41395 259.36648,936.98508 C 252.64547,934.81531 249.28498,931.19021 249.28499,926.10977 L 249.28499,893.56325 C 249.28498,888.80039 252.61901,885.25467 259.28710,882.92609 C 263.99705,881.28558 269.28917,880.46530 275.16345,880.46525 L 321.60179,880.46525 L 321.60179,891.97561 L 275.16345,891.97561 C 265.79637,891.97564 261.11286,894.06603 261.11288,898.24677 L 261.11288,922.53759 C 261.11286,925.92455 265.79637,927.61803 275.16345,927.61803 L 321.60179,927.61803 L 321.60179,939.12839 M 414.55289,939.12839 L 391.61156,939.12839 L 344.77631,912.85302 L 344.77631,939.12839 L 333.26595,939.12839 L 333.26595,880.46525 L 344.77631,880.46525 L 344.77631,901.10451 L 386.29298,880.46525 L 411.77453,880.46525 L 357.79492,907.53444 L 414.55289,939.12839 M 463.81548,939.12839 L 411.42351,939.12839 L 411.42351,880.46525 L 422.93387,880.46525 L 422.93387,927.61803 L 463.81548,927.61803 L 463.81548,939.12839 M 543.34734,926.10977 C 543.34726,934.78885 534.74758,939.12839 517.54826,939.12839 L 496.90900,939.12839 C 491.35224,939.12839 486.11305,938.25519 481.19141,936.50879 C 474.41748,934.07441 471.03053,930.60807 471.03054,926.10977 L 471.03054,880.46525 L 482.54090,880.46525 L 482.54090,923.01388 C 482.54088,926.08331 487.33023,927.61803 496.90900,927.61803 L 517.54826,927.61803 C 527.07401,927.61803 531.83692,926.08331 531.83698,923.01388 L 531.83698,880.46525 L 543.34734,880.46525 L 543.34734,926.10977 M 626.49479,939.12839 L 580.05645,939.12839 C 573.65295,939.12839 568.28145,938.44041 563.94195,937.06446 C 557.43263,934.89469 554.17797,931.24313 554.17799,926.10977 L 554.17799,893.56325 C 554.17797,888.53578 557.45909,884.91068 564.02133,882.68794 C 568.41376,881.20620 573.75880,880.46530 580.05645,880.46525 L 626.49479,880.46525 L 626.49479,891.97561 L 580.05645,891.97561 C 570.53060,891.97564 565.76771,893.58974 565.76773,896.81790 L 565.76773,922.69636 C 565.76771,925.97747 570.53060,927.61803 580.05645,927.61803 L 614.98443,927.61803 L 614.98443,910.39218 L 575.92860,910.39218 L 575.92860,898.88182 L 620.69992,898.88182 C 622.28747,898.88186 623.63696,899.46399 624.74839,900.62822 C 625.91257,901.73960 626.49471,903.08909 626.49479,904.67669 L 626.49479,939.12839"
       id="text2654"
       inkscape:export-filename="/home/cheng/aucklug-logo-concept1.3.5.png"
       inkscape:export-xdpi="72.000000"
       inkscape:export-ydpi="72.000000" />
    <g
       id="g6159"
       inkscape:export-filename="/home/cheng/aucklug-logo-concept1.3.5.png"
       inkscape:export-xdpi="72.000000"
       inkscape:export-ydpi="72.000000">
      <path
         style="fill:#818181;fill-opacity:1.0000000;fill-rule:evenodd;stroke:#818181;stroke-width:1.0000000pt;stroke-linecap:butt;stroke-linejoin:miter;stroke-opacity:1.0000000;opacity:1.0000000;"
         d="M 247.56305,665.01420 C 245.77042,650.03153 246.30571,638.41080 249.95811,632.13643 C 267.71690,601.62903 323.87930,570.48450 358.24081,556.54271 C 450.77150,518.99944 456.97983,488.61091 457.06928,487.65889 C 457.20282,486.23765 455.30758,485.21290 455.47931,482.53669 C 455.65050,479.86887 457.98471,475.71218 465.05353,465.16013 C 468.09644,475.67519 468.42839,484.45971 466.38245,487.30985 C 464.87185,489.41421 461.38460,488.82642 460.38942,489.79721 C 458.67082,491.47368 456.81493,506.32694 424.67330,528.50370 C 381.29147,558.43588 320.88129,570.99227 275.76427,617.01611 C 257.16070,635.99361 249.97867,659.91073 247.56305,665.01420 z "
         id="path3858"
         sodipodi:nodetypes="csssscssssc"
         transform="matrix(0.388826,-2.732084,2.732084,0.388826,-1297.989,1187.548)" />
      <path
         style="fill:#818181;fill-opacity:1.0000000;fill-rule:evenodd;stroke:#818181;stroke-width:1.2500000;stroke-linecap:butt;stroke-linejoin:miter;stroke-miterlimit:4.0000000;stroke-opacity:1.0000000;opacity:1.0000000;"
         d="M 266.18331,604.47133 C 255.45418,582.72758 260.66118,557.84909 283.01078,542.90152 C 293.68299,569.18517 285.96327,591.42352 266.18331,604.47133 z "
         id="path3859"
         sodipodi:nodetypes="ccc"
         transform="matrix(0.388826,-2.732084,2.732084,0.388826,-1297.989,1187.548)" />
      <path
         style="fill:#818181;fill-opacity:1.0000000;fill-rule:evenodd;stroke:#818181;stroke-width:1.2500000;stroke-linecap:butt;stroke-linejoin:miter;stroke-miterlimit:4.0000000;stroke-opacity:1.0000000;opacity:1.0000000;"
         d="M 295.28924,583.12064 C 288.07031,563.30901 294.92428,542.29444 315.65858,531.48606 C 322.39898,555.21695 313.62249,573.71155 295.28924,583.12064 z "
         id="path3860"
         sodipodi:nodetypes="ccc"
         transform="matrix(0.388826,-2.732084,2.732084,0.388826,-1297.989,1187.548)" />
      <path
         style="fill:#818181;fill-opacity:1.0000000;fill-rule:evenodd;stroke:#818181;stroke-width:1.2500000;stroke-linecap:butt;stroke-linejoin:miter;stroke-miterlimit:4.0000000;stroke-opacity:1.0000000;opacity:1.0000000;"
         d="M 324.99073,565.56558 C 319.85854,547.98568 326.99125,530.16181 345.57451,521.97107 C 350.06958,542.92057 341.41366,558.45134 324.99073,565.56558 z "
         id="path3861"
         sodipodi:nodetypes="ccc"
         transform="matrix(0.388826,-2.732084,2.732084,0.388826,-1297.989,1187.548)" />
      <path
         style="fill:#818181;fill-opacity:1.0000000;fill-rule:evenodd;stroke:#818181;stroke-width:1.2142731;stroke-linecap:butt;stroke-linejoin:miter;stroke-miterlimit:4.0000000;stroke-opacity:1.0000000;opacity:1.0000000;"
         d="M 362.07890,595.67847 C 358.50514,580.53635 365.34741,565.73164 381.47647,559.60763 C 384.36018,577.58012 376.32741,590.37184 362.07890,595.67847 z "
         id="path3862"
         sodipodi:nodetypes="ccc"
         transform="matrix(0.388826,-2.732084,2.732084,0.388826,-1417.991,1198.344)" />
      <path
         style="fill:#818181;fill-opacity:1.0000000;fill-rule:evenodd;stroke:#818181;stroke-width:1.3258613;stroke-linecap:butt;stroke-linejoin:miter;stroke-miterlimit:4.0000000;stroke-opacity:1.0000000;opacity:1.0000000;"
         d="M 377.81144,542.39384 C 375.49493,529.86320 381.68591,518.02622 395.12617,513.66293 C 396.76471,528.48135 389.68051,538.62385 377.81144,542.39384 z "
         id="path3863"
         sodipodi:nodetypes="ccc"
         transform="matrix(0.388826,-2.732084,2.732084,0.388826,-1297.989,1187.548)" />
      <path
         style="fill:#818181;fill-opacity:1.0000000;fill-rule:evenodd;stroke:#818181;stroke-width:1.2500000;stroke-linecap:butt;stroke-linejoin:miter;stroke-miterlimit:4.0000000;stroke-opacity:1.0000000;opacity:1.0000000;"
         d="M 398.69517,533.38162 C 396.07959,523.97390 400.00455,514.52026 409.96814,510.28094 C 412.22095,521.48073 407.49964,529.70138 398.69517,533.38162 z "
         id="path3864"
         sodipodi:nodetypes="ccc"
         transform="matrix(0.388826,-2.732084,2.732084,0.388826,-1297.989,1187.548)" />
      <path
         style="fill:#818181;fill-opacity:1.0000000;fill-rule:evenodd;stroke:#818181;stroke-width:1.2096288;stroke-linecap:butt;stroke-linejoin:miter;stroke-miterlimit:4.0000000;stroke-opacity:1.0000000;opacity:1.0000000;"
         d="M 413.90901,524.90263 C 411.79809,517.48916 414.84996,510.00729 422.69426,506.61187 C 424.52764,515.44177 420.84107,521.95425 413.90901,524.90263 z "
         id="path3865"
         sodipodi:nodetypes="ccc"
         transform="matrix(0.388826,-2.732084,2.732084,0.388826,-1297.989,1187.548)" />
      <path
         style="fill:#818181;fill-opacity:1.0000000;fill-rule:evenodd;stroke:#818181;stroke-width:1.1582129;stroke-linecap:butt;stroke-linejoin:miter;stroke-miterlimit:4.0000000;stroke-opacity:1.0000000;opacity:1.0000000;"
         d="M 427.15079,516.80209 C 424.86647,511.27910 426.55288,505.24498 432.29366,501.93301 C 434.48996,508.57167 432.22858,513.91546 427.15079,516.80209 z "
         id="path3866"
         sodipodi:nodetypes="ccc"
         transform="matrix(0.388826,-2.732084,2.732084,0.388826,-1297.989,1187.548)" />
      <path
         style="fill:#818181;fill-opacity:1.0000000;fill-rule:evenodd;stroke:#818181;stroke-width:1.1396499;stroke-linecap:butt;stroke-linejoin:miter;stroke-miterlimit:4.0000000;stroke-opacity:1.0000000;opacity:1.0000000;"
         d="M 436.86647,509.19841 C 434.80877,504.90995 435.88387,500.04097 440.30027,497.15710 C 442.33702,502.33596 440.77470,506.68161 436.86647,509.19841 z "
         id="path3867"
         sodipodi:nodetypes="ccc"
         transform="matrix(0.388826,-2.732084,2.732084,0.388826,-1297.989,1187.548)" />
      <path
         style="fill:#818181;fill-opacity:1.0000000;fill-rule:evenodd;stroke:#818181;stroke-width:1.0729424;stroke-linecap:butt;stroke-linejoin:miter;stroke-miterlimit:4.0000000;stroke-opacity:1.0000000;opacity:1.0000000;"
         d="M 444.33015,501.58428 C 442.59872,498.00853 443.48218,493.93860 447.16234,491.51673 C 448.87892,495.83625 447.58695,499.47054 444.33015,501.58428 z "
         id="path3868"
         sodipodi:nodetypes="ccc"
         transform="matrix(0.388826,-2.732084,2.732084,0.388826,-1297.989,1187.548)" />
      <path
         style="fill:#818181;fill-opacity:1.0000000;fill-rule:evenodd;stroke:#818181;stroke-width:0.99405974;stroke-linecap:butt;stroke-linejoin:miter;stroke-miterlimit:4.0000000;stroke-opacity:1.0000000;opacity:1.0000000;"
         d="M 451.01121,493.34568 C 449.42353,490.55273 449.91943,487.22164 452.75980,485.07128 C 454.37517,488.46516 453.52642,491.46650 451.01121,493.34568 z "
         id="path3869"
         sodipodi:nodetypes="ccc"
         transform="matrix(0.388826,-2.732084,2.732084,0.388826,-1297.989,1187.548)" />
      <path
         style="fill:#818181;fill-opacity:1.0000000;fill-rule:evenodd;stroke:#818181;stroke-width:1.2500000;stroke-linecap:butt;stroke-linejoin:miter;stroke-miterlimit:4.0000000;stroke-opacity:1.0000000;opacity:1.0000000;"
         d="M 353.01703,704.40438 C 333.50862,718.80321 308.10166,718.06951 289.44368,698.70937 C 313.43076,683.56517 336.68259,687.23818 353.01703,704.40438 z "
         id="path3893"
         sodipodi:nodetypes="ccc"
         transform="matrix(0.388826,-2.732084,2.732084,0.388826,-1497.510,1193.995)" />
      <path
         style="fill:#818181;fill-opacity:1.0000000;fill-rule:evenodd;stroke:#818181;stroke-width:1.2500000;stroke-linecap:butt;stroke-linejoin:miter;stroke-miterlimit:4.0000000;stroke-opacity:1.0000000;opacity:1.0000000;"
         d="M 370.81516,679.20020 C 354.00421,691.92835 331.90321,691.56031 315.47303,674.92357 C 336.17060,661.49971 356.42875,664.44656 370.81516,679.20020 z "
         id="path3894"
         sodipodi:nodetypes="ccc"
         transform="matrix(0.388826,-2.732084,2.732084,0.388826,-1497.510,1193.995)" />
      <path
         style="fill:#818181;fill-opacity:1.0000000;fill-rule:evenodd;stroke:#818181;stroke-width:1.2500000;stroke-linecap:butt;stroke-linejoin:miter;stroke-miterlimit:4.0000000;stroke-opacity:1.0000000;opacity:1.0000000;"
         d="M 392.20677,658.63267 C 377.67743,669.78126 358.48037,669.58524 344.11747,655.22789 C 362.01846,643.45332 379.62946,645.89940 392.20677,658.63267 z "
         id="path3895"
         sodipodi:nodetypes="ccc"
         transform="matrix(0.388826,-2.732084,2.732084,0.388826,-1497.510,1193.995)" />
      <path
         style="fill:#818181;fill-opacity:1.0000000;fill-rule:evenodd;stroke:#818181;stroke-width:1.2142731;stroke-linecap:butt;stroke-linejoin:miter;stroke-miterlimit:4.0000000;stroke-opacity:1.0000000;opacity:1.0000000;"
         d="M 414.88330,641.98349 C 403.13874,652.18751 386.85026,653.01282 373.92954,641.58019 C 388.50075,630.67117 403.56055,631.83578 414.88330,641.98349 z "
         id="path3896"
         sodipodi:nodetypes="ccc"
         transform="matrix(0.388826,-2.732084,2.732084,0.388826,-1497.510,1193.995)" />
      <path
         style="fill:#818181;fill-opacity:1.0000000;fill-rule:evenodd;stroke:#818181;stroke-width:1.3258613;stroke-linecap:butt;stroke-linejoin:miter;stroke-miterlimit:4.0000000;stroke-opacity:1.0000000;opacity:1.0000000;"
         d="M 434.07349,627.39014 C 425.01191,636.34953 411.74195,637.88274 400.57844,629.21933 C 411.91328,619.53471 424.28384,619.69272 434.07349,627.39014 z "
         id="path3897"
         sodipodi:nodetypes="ccc"
         transform="matrix(0.388826,-2.732084,2.732084,0.388826,-1497.510,1193.995)" />
      <path
         style="fill:#818181;fill-opacity:1.0000000;fill-rule:evenodd;stroke:#818181;stroke-width:1.2500000;stroke-linecap:butt;stroke-linejoin:miter;stroke-miterlimit:4.0000000;stroke-opacity:1.0000000;opacity:1.0000000;"
         d="M 448.21176,613.33596 C 441.68824,620.60164 431.60760,622.37850 422.67410,616.25988 C 430.90342,608.33596 440.37310,607.89371 448.21176,613.33596 z "
         id="path3898"
         sodipodi:nodetypes="ccc"
         transform="matrix(0.388826,-2.732084,2.732084,0.388826,-1497.510,1193.995)" />
      <path
         style="fill:#818181;fill-opacity:1.0000000;fill-rule:evenodd;stroke:#818181;stroke-width:1.2096288;stroke-linecap:butt;stroke-linejoin:miter;stroke-miterlimit:4.0000000;stroke-opacity:1.0000000;opacity:1.0000000;"
         d="M 458.86008,601.77084 C 454.12015,607.84937 446.27876,609.79995 438.90896,605.47011 C 444.95622,598.77989 452.38946,597.91373 458.86008,601.77084 z "
         id="path3899"
         sodipodi:nodetypes="ccc"
         transform="matrix(0.388826,-2.732084,2.732084,0.388826,-1497.510,1193.995)" />
      <path
         style="fill:#818181;fill-opacity:1.0000000;fill-rule:evenodd;stroke:#818181;stroke-width:1.1582129;stroke-linecap:butt;stroke-linejoin:miter;stroke-miterlimit:4.0000000;stroke-opacity:1.0000000;opacity:1.0000000;"
         d="M 452.17840,595.41085 C 455.54778,590.47433 461.51981,588.57989 467.43536,591.56852 C 463.08439,597.04250 457.37492,598.07781 452.17840,595.41085 z "
         id="path3900"
         sodipodi:nodetypes="ccc"
         transform="matrix(0.388826,-2.732084,2.732084,0.388826,-1497.510,1193.995)" />
      <path
         style="fill:#818181;fill-opacity:1.0000000;fill-rule:evenodd;stroke:#818181;stroke-width:1.1396499;stroke-linecap:butt;stroke-linejoin:miter;stroke-miterlimit:4.0000000;stroke-opacity:1.0000000;opacity:1.0000000;"
         d="M 461.89548,586.39632 C 463.50859,581.92163 467.73293,579.27254 472.88622,580.39733 C 470.62379,585.48165 466.43068,587.41639 461.89548,586.39632 z "
         id="path3901"
         sodipodi:nodetypes="ccc"
         transform="matrix(0.388826,-2.732084,2.732084,0.388826,-1497.510,1193.995)" />
      <path
         style="fill:#818181;fill-opacity:1.0000000;fill-rule:evenodd;stroke:#818181;stroke-width:1.0729424;stroke-linecap:butt;stroke-linejoin:miter;stroke-miterlimit:4.0000000;stroke-opacity:1.0000000;opacity:1.0000000;"
         d="M 468.17006,577.01579 C 469.20934,573.18124 472.54627,570.68932 476.91260,571.27604 C 475.37414,575.66214 472.01472,577.55727 468.17006,577.01579 z "
         id="path3902"
         sodipodi:nodetypes="ccc"
         transform="matrix(0.388826,-2.732084,2.732084,0.388826,-1497.510,1193.995)" />
      <path
         style="fill:#818181;fill-opacity:1.0000000;fill-rule:evenodd;stroke:#818181;stroke-width:0.99405974;stroke-linecap:butt;stroke-linejoin:miter;stroke-miterlimit:4.0000000;stroke-opacity:1.0000000;opacity:1.0000000;"
         d="M 479.39880,563.07203 C 479.06551,566.26735 476.72441,568.68841 473.16319,568.78524 C 473.82350,565.08498 476.25978,563.13741 479.39880,563.07203 z "
         id="path3903"
         sodipodi:nodetypes="ccc"
         transform="matrix(0.388826,-2.732084,2.732084,0.388826,-1497.510,1193.995)" />
    </g>
    <g
       id="g2662"
       transform="matrix(-0.951750,0.000000,0.000000,0.951750,191.9493,177.1469)"
       inkscape:export-filename="/home/cheng/aucklug-logo-concept1.3.5.png"
       inkscape:export-xdpi="72.000000"
       inkscape:export-ydpi="72.000000">
      <path
         style="fill:#000000;fill-opacity:1.0000000;fill-rule:evenodd;stroke:#000000;stroke-width:2.5000000;stroke-linecap:round;stroke-linejoin:round;stroke-opacity:1.0000000"
         d="M -555.00000,521.11210 C -566.22060,513.10210 -566.53540,480.45470 -548.47960,463.76430 C -535.32840,452.51810 -508.94770,367.70810 -502.92870,356.72670 C -490.13400,333.38330 -447.64670,286.15880 -437.89000,260.82880 C -423.96120,223.41720 -502.54080,20.798600 -345.71000,16.126400 C -202.69860,12.258700 -226.88410,188.82880 -216.18360,222.91680 C -207.84760,249.17530 -208.05150,256.19570 -145.65950,337.93090 C -132.14670,355.55040 -93.023300,433.70420 -92.742700,494.33900 C -92.685900,506.99610 -95.785500,519.41050 -97.364600,522.36510 C -99.169300,526.78770 -101.34050,528.90840 -105.38940,531.31520 C -111.33780,535.41140 -124.46280,574.89780 -163.34310,571.25670 C -212.46810,566.61070 -187.94130,527.91750 -199.44460,526.28000 C -207.85250,525.08310 -208.06810,525.34420 -217.01640,525.34910 C -242.70440,525.36360 -230.01580,557.26620 -234.40060,622.49860 C -235.41420,642.90260 -235.80690,651.15310 -237.57530,671.76230 C -237.98660,676.55580 -238.76920,709.85390 -242.86760,708.71810 C -254.68070,706.54350 -286.69600,701.64450 -355.05680,704.16230 C -415.69510,706.40820 -402.10690,716.78390 -418.21790,716.42880 C -420.32830,716.33230 -509.97950,572.50260 -516.76420,562.03230 C -522.79690,552.72250 -544.11340,528.34900 -555.00000,521.11210 z "
         id="path2663"
         sodipodi:nodetypes="csssssssssssssssssss"
         inkscape:export-filename="/home/cheng/My Pictures/practice/tux.png"
         inkscape:export-xdpi="72.000000"
         inkscape:export-ydpi="72.000000"
         transform="matrix(0.939103,0.000000,0.000000,0.939103,150.6210,26.81490)" />
      <path
         style="font-size:12.000000;fill:#ffffff;fill-opacity:1.0000000;fill-rule:evenodd;stroke-width:1.0000000"
         d="M -376.91977,161.26816 C -376.91977,186.01006 -382.36357,202.45126 -397.00897,202.45126 C -411.65447,202.45126 -427.54467,190.02796 -427.54467,165.28606 C -427.54467,140.54436 -422.05407,123.32556 -405.44647,121.29056 C -393.28287,119.84936 -376.91977,136.52656 -376.91977,161.26816 z "
         id="path2664"
         sodipodi:nodetypes="cssss"
         inkscape:export-filename="/home/cheng/My Pictures/practice/tux.png"
         inkscape:export-xdpi="72.000000"
         inkscape:export-ydpi="72.000000"
         transform="matrix(0.939103,0.000000,0.000000,0.939103,150.6210,26.81490)" />
      <path
         style="font-size:12.000000;fill:#ffffff;fill-opacity:1.0000000;fill-rule:evenodd;stroke-width:1.0000000"
         d="M -276.07160,166.89330 C -274.74310,191.59950 -291.15830,203.25490 -305.80360,203.25490 C -320.44920,203.25490 -346.78580,183.19770 -346.78580,158.45580 C -346.78580,133.71410 -330.84880,118.50420 -313.43760,116.46920 C -301.27980,114.97950 -278.48240,121.66050 -276.07160,166.89330 z "
         id="path2665"
         sodipodi:nodetypes="cssss"
         inkscape:export-filename="/home/cheng/My Pictures/practice/tux.png"
         inkscape:export-xdpi="72.000000"
         inkscape:export-ydpi="72.000000"
         transform="matrix(0.939103,0.000000,0.000000,0.939103,150.6210,26.81490)" />
      <path
         style="font-size:12.000000;fill:#000000;fill-opacity:1.0000000;fill-rule:evenodd;stroke-width:1.0000000"
         d="M -388.57140,166.49160 C -388.57140,178.80710 -387.41940,187.98710 -396.40630,190.79960 C -405.08640,193.12810 -418.30360,180.01240 -418.30360,167.69690 C -418.30360,155.38150 -418.61940,146.56620 -405.64730,144.59440 C -395.94250,143.07210 -388.57140,154.17620 -388.57140,166.49160 z "
         id="path2666"
         sodipodi:nodetypes="cssss"
         inkscape:export-filename="/home/cheng/My Pictures/practice/tux.png"
         inkscape:export-xdpi="72.000000"
         inkscape:export-ydpi="72.000000"
         transform="matrix(0.939103,0.000000,0.000000,0.939103,150.6210,26.81490)" />
      <path
         style="font-size:12.000000;fill:#000000;fill-opacity:1.0000000;fill-rule:evenodd;stroke-width:1.0000000"
         d="M -292.54460,166.49150 C -291.33920,188.04820 -309.45540,193.25120 -318.86170,192.80840 C -329.55070,192.32430 -328.70540,180.41410 -328.70540,168.09870 C -328.70540,155.78320 -325.00340,145.76250 -312.03130,143.79060 C -302.32650,142.26840 -293.24520,154.19610 -292.54460,166.49150 z "
         id="path2668"
         sodipodi:nodetypes="cssss"
         inkscape:export-filename="/home/cheng/My Pictures/practice/tux.png"
         inkscape:export-xdpi="72.000000"
         inkscape:export-ydpi="72.000000"
         transform="matrix(0.939103,0.000000,0.000000,0.939103,150.6210,26.81490)" />
      <path
         style="fill:#ffffff;fill-opacity:1.0000000;fill-rule:evenodd;stroke:#ffffff;stroke-width:1.2500000;stroke-linecap:round;stroke-linejoin:round;stroke-opacity:1.0000000"
         d="M -362.73650,274.42490 C -336.23380,273.91090 -300.31140,231.39700 -282.38200,238.63910 C -275.53270,241.68620 -265.60310,274.82580 -251.44270,302.95140 C -245.25840,314.91400 -246.86100,320.90190 -237.67680,344.41380 C -229.83900,362.59930 -218.70940,376.86130 -212.19930,396.94920 C -199.95000,433.27720 -201.89440,456.28720 -199.12070,473.07790 C -197.18400,482.34770 -200.79760,524.94960 -206.07150,525.64890 C -235.03640,533.05570 -218.72480,558.73110 -234.12510,603.31130 C -242.16630,626.20540 -299.45900,666.62430 -357.29220,669.65110 C -420.57190,673.04920 -445.38560,631.41070 -439.50240,629.41900 C -433.33900,627.08390 -399.54380,628.20410 -412.92320,595.59410 C -419.23770,581.72560 -503.51810,524.38560 -504.11610,511.67240 C -505.18910,487.54080 -502.45330,471.12100 -498.41860,450.97250 C -495.44100,435.36860 -479.14820,406.27330 -472.52370,392.21090 C -463.97050,373.10630 -452.81650,336.78390 -446.61200,320.01960 C -441.49930,306.20500 -427.85540,296.23140 -422.54220,282.15900 C -417.74860,269.46260 -424.85700,244.06220 -419.24620,242.13260 C -407.34590,238.29240 -393.56970,275.00680 -362.73650,274.42490 z "
         id="path2669"
         sodipodi:nodetypes="csssssssssssssssss"
         inkscape:export-filename="/home/cheng/My Pictures/practice/tux.png"
         inkscape:export-xdpi="72.000000"
         inkscape:export-ydpi="72.000000"
         transform="matrix(0.939103,0.000000,0.000000,0.939103,150.6210,26.81490)" />
      <path
         style="fill:#dba100;fill-opacity:1.0000000;fill-rule:evenodd;stroke:none;stroke-width:1.0000000pt;stroke-linecap:butt;stroke-linejoin:miter;stroke-opacity:1.0000000"
         d="M -104.33200,532.18640 C -99.481200,531.80800 -92.235900,534.32620 -89.860900,538.27540 C -85.775500,545.50850 -95.610700,568.98220 -73.054500,591.72340 C -48.821700,616.64110 -32.476200,615.42870 -30.792800,635.51020 C -29.115000,655.96270 -90.708600,676.89220 -109.79480,690.14970 C -145.09410,715.10900 -159.90230,750.22560 -217.97660,738.70380 C -266.08750,729.07140 -234.76500,635.16310 -234.65090,616.78640 C -232.96620,560.91060 -234.10480,531.23360 -229.13740,528.77350 C -219.85690,524.17720 -206.38340,525.23050 -196.36720,525.23820 C -192.16750,525.24130 -208.19130,566.85050 -168.95600,571.43170 C -122.96210,576.86300 -110.92610,532.26070 -104.33200,532.18640 z "
         id="path2670"
         sodipodi:nodetypes="cssssssssss"
         inkscape:export-filename="/home/cheng/My Pictures/practice/tux.png"
         inkscape:export-xdpi="72.000000"
         inkscape:export-ydpi="72.000000"
         transform="matrix(0.939103,0.000000,0.000000,0.939103,150.6210,26.81490)" />
      <path
         style="fill:#dba100;fill-opacity:1.0000000;fill-rule:evenodd;stroke:none;stroke-width:1.0000000pt;stroke-linecap:round;stroke-linejoin:round;stroke-opacity:1.0000000"
         d="M -582.55000,555.24410 C -573.83080,546.17080 -551.20040,509.23890 -535.48210,509.82430 C -512.78670,510.64590 -476.50520,571.33540 -457.14550,606.64280 C -442.52420,634.13180 -379.16440,686.47860 -427.91420,727.71330 C -461.64980,755.98650 -493.62150,733.17530 -513.60590,725.60410 C -528.59490,719.92540 -625.59589,698.71750 -639.50554,690.55760 C -651.69975,683.40390 -643.87183,666.45830 -641.99454,637.26950 C -639.34327,595.40880 -649.71968,594.40390 -637.61774,577.72140 C -629.66952,567.06130 -598.39330,570.82750 -582.55000,555.24410 z "
         id="path2671"
         sodipodi:nodetypes="cssssssss"
         inkscape:export-filename="/home/cheng/My Pictures/practice/tux.png"
         inkscape:export-xdpi="72.000000"
         inkscape:export-ydpi="72.000000"
         transform="matrix(0.939103,0.000000,0.000000,0.939103,150.6210,26.81490)" />
      <path
         style="fill:#000000;fill-opacity:0.099999972;fill-rule:evenodd;stroke:none;stroke-width:1.2500000;stroke-linecap:round;stroke-linejoin:round;stroke-opacity:1.0000000"
         d="M -424.38730,263.54360 C -420.81540,262.47950 -389.82230,301.85060 -374.07420,304.78770 C -358.42830,308.00000 -320.41840,286.31650 -309.09010,273.19080 C -299.52170,263.10460 -263.48840,250.47650 -271.05800,234.40280 C -273.96430,228.34500 -413.80660,235.09920 -421.28150,235.01910 C -425.26550,234.97640 -427.64900,264.76570 -424.38730,263.54360 z "
         id="path2673"
         sodipodi:nodetypes="csssss"
         inkscape:export-filename="/home/cheng/My Pictures/practice/tux.png"
         inkscape:export-xdpi="72.000000"
         inkscape:export-ydpi="72.000000"
         transform="matrix(0.939103,0.000000,0.000000,0.939103,150.6210,26.81490)" />
      <path
         style="fill:#ffd100;fill-opacity:1.0000000;fill-rule:evenodd;stroke:#ffd100;stroke-width:1.2500000;stroke-linecap:round;stroke-linejoin:round;stroke-opacity:1.0000000"
         d="M -378.64580,175.39790 C -372.41000,174.81360 -354.01420,171.96980 -347.92940,175.09360 C -319.50130,190.03040 -308.86320,192.20530 -297.47010,196.83490 C -292.23280,199.27770 -273.87270,199.23280 -275.37340,217.83010 C -276.96600,243.39870 -298.71530,245.02440 -305.14030,248.51640 C -314.23670,254.59270 -325.65630,263.63930 -334.34460,269.93820 C -340.06460,274.33320 -359.27220,277.41580 -366.71280,277.14980 C -390.53320,276.31040 -404.53950,253.73380 -410.51480,248.24830 C -415.74930,243.44300 -428.31450,237.48070 -429.56360,221.90440 C -429.97840,210.96210 -406.52190,197.45000 -401.27240,191.26620 C -398.06960,187.15120 -383.44790,175.84780 -378.64580,175.39790 z "
         id="path2674"
         sodipodi:nodetypes="cssssssssss"
         inkscape:export-filename="/home/cheng/My Pictures/practice/tux.png"
         inkscape:export-xdpi="72.000000"
         inkscape:export-ydpi="72.000000"
         transform="matrix(0.939103,0.000000,0.000000,0.939103,150.6210,26.81490)" />
      <path
         style="fill:none;fill-opacity:1.0000000;fill-rule:evenodd;stroke:#000000;stroke-width:2.8750000;stroke-linecap:round;stroke-linejoin:round;stroke-opacity:1.0000000"
         d="M -422.01470,229.08290 C -412.94690,233.99000 -405.06830,252.06530 -371.73290,249.30130 C -337.43180,246.43280 -297.92180,218.93560 -294.95880,217.05180"
         id="path2675"
         sodipodi:nodetypes="csc"
         inkscape:export-filename="/home/cheng/My Pictures/practice/tux.png"
         inkscape:export-xdpi="72.000000"
         inkscape:export-ydpi="72.000000"
         transform="matrix(0.939103,0.000000,0.000000,0.939103,150.6210,26.81490)" />
      <path
         style="fill:#ffffff;fill-opacity:0.24999996;fill-rule:evenodd;stroke:none;stroke-width:1.0000000pt;stroke-linecap:butt;stroke-linejoin:miter;stroke-opacity:0.49999997"
         d="M -191.62240,520.53270 C -192.29140,518.63820 -183.15930,503.57670 -146.91130,505.00640 C -113.33930,506.33060 -99.006400,527.25420 -124.01510,539.17000 C -130.56100,542.23970 -116.55360,517.40900 -150.43350,513.14740 C -185.76140,508.72740 -190.43900,523.69620 -191.62240,520.53270 z "
         id="path2676"
         sodipodi:nodetypes="cssss"
         inkscape:export-filename="/home/cheng/My Pictures/practice/tux.png"
         inkscape:export-xdpi="72.000000"
         inkscape:export-ydpi="72.000000"
         transform="matrix(0.939103,0.000000,0.000000,0.939103,150.6210,26.81490)" />
      <path
         style="fill:#ffffff;fill-opacity:0.24999996;fill-rule:evenodd;stroke:none;stroke-width:1.0000000pt;stroke-linecap:butt;stroke-linejoin:miter;stroke-opacity:1.0000000"
         d="M -494.80020,379.46040 C -499.07460,382.82640 -536.15580,466.27350 -528.60280,488.36180 C -516.76000,525.29230 -444.14390,568.25530 -438.67870,566.95070 C -436.02780,566.25840 -502.11980,533.25210 -518.22960,489.74910 C -530.96840,454.08060 -489.64770,374.93320 -494.80020,379.46040 z "
         id="path2679"
         sodipodi:nodetypes="cssss"
         inkscape:export-filename="/home/cheng/My Pictures/practice/tux.png"
         inkscape:export-xdpi="72.000000"
         inkscape:export-ydpi="72.000000"
         transform="matrix(0.939103,0.000000,0.000000,0.939103,150.6210,26.81490)" />
      <path
         style="fill:#ffffff;fill-opacity:0.24999996;fill-rule:evenodd;stroke:none;stroke-width:1.2500000;stroke-linecap:round;stroke-linejoin:round;stroke-opacity:1.0000000"
         d="M -205.89290,357.11550 C -194.20770,355.81620 -153.75370,401.00050 -149.63240,429.45860 C -145.52620,458.12760 -166.09080,505.38090 -167.24870,500.22290 C -168.13180,494.88810 -150.37780,452.79660 -154.32090,431.85150 C -163.22720,388.03850 -210.13700,357.57510 -205.89290,357.11550 z "
         id="path2680"
         sodipodi:nodetypes="cssss"
         inkscape:export-filename="/home/cheng/My Pictures/practice/tux.png"
         inkscape:export-xdpi="72.000000"
         inkscape:export-ydpi="72.000000"
         transform="matrix(0.939103,0.000000,0.000000,0.939103,150.6210,26.81490)" />
      <path
         style="fill:#ffffff;fill-opacity:0.24999996;fill-rule:evenodd;stroke:none;stroke-width:1.0000000pt;stroke-linecap:round;stroke-linejoin:round;stroke-opacity:1.0000000"
         d="M -393.17450,105.91000 C -388.93940,107.91070 -371.51120,121.39440 -379.11590,123.28580 C -384.66580,124.77640 -385.29950,119.25620 -396.01300,113.05360 C -406.50870,107.06440 -412.48430,110.98430 -414.39840,106.99910 C -416.50110,102.30710 -400.84230,102.35910 -393.17450,105.91000 z "
         id="path2681"
         sodipodi:nodetypes="cssss"
         inkscape:export-filename="/home/cheng/My Pictures/practice/tux.png"
         inkscape:export-xdpi="72.000000"
         inkscape:export-ydpi="72.000000"
         transform="matrix(0.939103,0.000000,0.000000,0.939103,150.6210,26.81490)" />
      <path
         style="fill:#ffffff;fill-opacity:0.24999996;fill-rule:evenodd;stroke:none;stroke-width:1.0000000pt;stroke-linecap:round;stroke-linejoin:round;stroke-opacity:1.0000000"
         d="M -287.06700,108.92860 C -283.81670,112.30120 -266.15830,126.82800 -273.76300,128.71940 C -279.31290,130.21000 -285.38030,116.69020 -296.09380,110.48760 C -306.58950,104.49840 -313.21800,108.67040 -314.47920,104.43310 C -316.43090,98.382700 -293.98010,101.60420 -287.06700,108.92860 z "
         id="path2682"
         sodipodi:nodetypes="cssss"
         inkscape:export-filename="/home/cheng/My Pictures/practice/tux.png"
         inkscape:export-xdpi="72.000000"
         inkscape:export-ydpi="72.000000"
         transform="matrix(0.939103,0.000000,0.000000,0.939103,150.6210,26.81490)" />
      <path
         style="fill:#ffffff;fill-opacity:0.24999996;fill-rule:evenodd;stroke:none;stroke-width:1.0000000pt;stroke-linecap:round;stroke-linejoin:round;stroke-opacity:1.0000000"
         d="M -569.17323,561.13978 C -562.08943,553.05918 -543.96933,520.41558 -530.86243,520.62298 C -511.93793,520.90158 -480.50473,573.12678 -463.67413,603.54358 C -450.94633,627.23358 -397.11933,671.66118 -436.91463,708.56088 C -464.45873,733.86778 -491.54843,714.59158 -508.34853,708.37448 C -520.94903,703.71158 -602.18443,687.08818 -613.93523,680.24068 C -624.23671,674.23728 -618.05183,659.30878 -617.06793,633.81808 C -615.69093,597.26158 -624.35587,596.58538 -614.60483,581.80388 C -608.19473,572.35418 -582.06303,575.03518 -569.17323,561.13978 z "
         id="path2683"
         sodipodi:nodetypes="cssssssss"
         inkscape:export-filename="/home/cheng/My Pictures/practice/tux.png"
         inkscape:export-xdpi="72.000000"
         inkscape:export-ydpi="72.000000"
         transform="matrix(0.939103,0.000000,0.000000,0.939103,150.6210,26.81490)" />
      <path
         style="fill:#ffffff;fill-opacity:0.24999996;fill-rule:evenodd;stroke:none;stroke-width:1.0000000pt;stroke-linecap:butt;stroke-linejoin:miter;stroke-opacity:1.0000000"
         d="M -101.69300,536.03084 C -97.589500,535.71074 -97.685000,535.76614 -95.675800,539.10704 C -92.219800,545.22574 -107.80170,563.00834 -88.720400,582.24614 C -68.220900,603.32524 -66.842500,599.18724 -65.418400,616.17514 C -63.999100,633.47674 -110.91690,653.25684 -127.06260,664.47184 C -156.92380,685.58604 -163.13350,724.04144 -210.79790,708.65824 C -248.90340,695.84144 -222.92500,621.06854 -222.82850,605.52284 C -221.40330,558.25504 -222.36650,533.15004 -218.16440,531.06884 C -210.31360,527.18064 -211.36470,527.55304 -202.89160,527.55944 C -199.33890,527.04344 -208.74450,567.94824 -177.10980,578.04814 C -139.61310,589.40474 -107.27150,536.09364 -101.69300,536.03084 z "
         id="path2684"
         sodipodi:nodetypes="cssssssssss"
         inkscape:export-filename="/home/cheng/My Pictures/practice/tux.png"
         inkscape:export-xdpi="72.000000"
         inkscape:export-ydpi="72.000000"
         transform="matrix(0.939103,0.000000,0.000000,0.939103,150.6210,26.81490)" />
      <path
         style="fill:#ffffff;fill-opacity:0.24999996;fill-rule:evenodd;stroke:none;stroke-width:1.0000000pt;stroke-linecap:round;stroke-linejoin:round;stroke-opacity:1.0000000"
         d="M -395.24080,159.63460 C -393.26410,163.88110 -392.36910,170.33840 -395.30210,171.27040 C -398.51170,172.40510 -401.07920,165.60790 -402.09720,163.44920 C -403.46140,160.71010 -405.97930,155.72710 -403.49280,153.72100 C -400.84790,151.68130 -397.05400,155.96880 -395.24080,159.63460 z "
         id="path2685"
         sodipodi:nodetypes="cssss"
         inkscape:export-filename="/home/cheng/My Pictures/practice/tux.png"
         inkscape:export-xdpi="72.000000"
         inkscape:export-ydpi="72.000000"
         transform="matrix(0.939103,0.000000,0.000000,0.939103,150.6210,26.81490)" />
      <path
         style="fill:#ffffff;fill-opacity:0.24999996;fill-rule:evenodd;stroke:none;stroke-width:1.0000000pt;stroke-linecap:round;stroke-linejoin:round;stroke-opacity:1.0000000"
         d="M -303.38760,151.30580 C -299.72380,154.09800 -296.08550,159.19390 -298.36430,161.16310 C -300.80790,163.41490 -306.12630,158.70550 -308.00090,157.29130 C -310.44580,155.52630 -314.92670,152.32990 -313.52560,149.63290 C -311.99400,146.84390 -306.64820,148.93860 -303.38760,151.30580 z "
         id="path2686"
         sodipodi:nodetypes="cssss"
         inkscape:export-filename="/home/cheng/My Pictures/practice/tux.png"
         inkscape:export-xdpi="72.000000"
         inkscape:export-ydpi="72.000000"
         transform="matrix(0.939103,0.000000,0.000000,0.939103,150.6210,26.81490)" />
      <path
         style="fill:#000000;fill-opacity:0.049999956;fill-rule:evenodd;stroke:none;stroke-width:1.2500000;stroke-linecap:round;stroke-linejoin:round;stroke-opacity:1.0000000"
         d="M -393.18890,193.17210 C -388.50800,192.42450 -377.95410,227.09170 -387.30400,234.53640 C -393.91460,239.66930 -424.58360,225.43360 -423.77950,218.60170 C -423.22990,213.74680 -397.66470,193.85730 -393.18890,193.17210 z "
         id="path2687"
         sodipodi:nodetypes="csss"
         inkscape:export-filename="/home/cheng/My Pictures/practice/tux.png"
         inkscape:export-xdpi="72.000000"
         inkscape:export-ydpi="72.000000"
         transform="matrix(0.939103,0.000000,0.000000,0.939103,150.6210,26.81490)" />
      <path
         style="fill:#ffffff;fill-opacity:0.19530000;fill-rule:evenodd;stroke:none;stroke-width:1.2500000;stroke-linecap:round;stroke-linejoin:round;stroke-opacity:1.0000000"
         d="M -358.61650,234.78470 C -352.56710,244.25180 -297.72180,214.20420 -298.58010,206.08980 C -299.51410,199.59050 -330.51400,188.21080 -337.79140,186.15850 C -344.29530,184.07780 -362.99420,227.68710 -358.61650,234.78470 z "
         id="path2688"
         sodipodi:nodetypes="csss"
         inkscape:export-filename="/home/cheng/My Pictures/practice/tux.png"
         inkscape:export-xdpi="72.000000"
         inkscape:export-ydpi="72.000000"
         transform="matrix(0.939103,0.000000,0.000000,0.939103,150.6210,26.81490)" />
      <path
         style="fill:#000000;fill-opacity:0.24999996;fill-rule:evenodd;stroke:none;stroke-width:1.0000000pt;stroke-linecap:butt;stroke-linejoin:miter;stroke-opacity:1.0000000"
         d="M -382.42350,183.28050 C -383.20310,180.77380 -391.82860,189.21090 -388.45340,189.43110 C -386.10950,189.33740 -381.29970,186.10130 -382.42350,183.28050 z "
         id="path2689"
         sodipodi:nodetypes="css"
         inkscape:export-filename="/home/cheng/My Pictures/practice/tux.png"
         inkscape:export-xdpi="72.000000"
         inkscape:export-ydpi="72.000000"
         transform="matrix(0.939103,0.000000,0.000000,0.939103,150.6210,26.81490)" />
      <path
         style="fill:#000000;fill-opacity:0.24999996;fill-rule:evenodd;stroke:none;stroke-width:1.0000000pt;stroke-linecap:butt;stroke-linejoin:miter;stroke-opacity:1.0000000"
         d="M -354.02690,182.24740 C -356.80850,183.82660 -343.58870,191.07660 -344.47810,187.24440 C -345.39570,184.65290 -350.98110,180.19510 -354.02690,182.24740 z "
         id="path2690"
         sodipodi:nodetypes="css"
         inkscape:export-filename="/home/cheng/My Pictures/practice/tux.png"
         inkscape:export-xdpi="72.000000"
         inkscape:export-ydpi="72.000000"
         transform="matrix(0.939103,0.000000,0.000000,0.939103,150.6210,26.81490)" />
    </g>
  </g>
</svg>
